# xmcd
#
# Track frame offsets:
#	300
#	18859
#	36783
#	50656
#	68149
#	81529
#	98270
#	119351
#	133484
#	150454
#	164608
#	184204
#	203024
#	217790
#	232515
#	245691
#	267414
#	283581
#
# Disc length: 4018 seconds
#
# Revision: 3
# Processed by: cddbd v1.5.2PL0 Copyright (c) Steve Scherf et al.
# Submitted via: audiograbber 1.83.01
#
DISCID=fa0fae12
DTITLE=Various Artist - SFG351
DYEAR=2015
DGENRE=Karaoke
TTITLE0=Wiz Khalifa f. charlie Puth - See you again
TTITLE1=Mumford and Sons - Believe
TTITLE2=Iggy Azalea f. Jennifer Hudson - Trouble
TTITLE3=Sam Smith f. John Legend - Lay me down
TTITLE4=Tough Love - So freakin' tight
TTITLE5=Lunchmoney Lewis - Bills
TTITLE6=Muse - Dead inside
TTITLE7=Blonde f. Alex Newell - All cried out
TTITLE8=Jason Derulo - Want to want me
TTITLE9=Electro Velvet - Still in love with you(euro 2015)
TTITLE10=Clean Bandit - Stronger
TTITLE11=Kodaline - The One
TTITLE12=Major Lazer f. Mo and DJ Snake - Lean on
TTITLE13=Will Young - Love revolution
TTITLE14=Gregor Salto f. Ane Brun - Can't stop playing (make me high)
TTITLE15=Kygo f. Conrad - Firestone
TTITLE16=Stevie McCrorie - Lost stars
TTITLE17=Chic f. Nile Rodgers - I'll be there
EXTD=
EXTT0=
EXTT1=
EXTT2=
EXTT3=
EXTT4=
EXTT5=
EXTT6=
EXTT7=
EXTT8=
EXTT9=
EXTT10=
EXTT11=
EXTT12=
EXTT13=
EXTT14=
EXTT15=
EXTT16=
EXTT17=
PLAYORDER=
